<?xml version="1.0" encoding="UTF-8" standalone="no"?>
<!-- Created with Inkscape (http://www.inkscape.org/) -->

<svg
   width="100"
   height="100"
   viewBox="0 0 26.458333 26.458333"
   version="1.1"
   id="svg5"
   xmlns="http://www.w3.org/2000/svg"
   xmlns:svg="http://www.w3.org/2000/svg">
  <defs
     id="defs2" />
  <g
     id="layer1">
    <path
       id="path1048"
       style="fill:#c1b19e;stroke-width:0.999475;stroke-linecap:round;stroke-linejoin:round"
       d="m 18.005078,4.8895697 v 3.6033976 c -2e-6,0.015693 -0.0012,0.031185 -0.0026,0.046509 h 2.04277 c 1.010841,0 1.824178,0.8133368 1.824178,1.8241777 0,1.010842 -0.813337,1.825212 -1.824178,1.825212 h -4.91908 l 5.17e-4,10e-4 h -1.564747 v 5.234305 h 3.63027 v -1.584882 h 2.931604 v -0.0057 c 0.05326,0.0027 0.106363,0.0044 0.15968,0.0057 3.023631,-9.2e-5 5.474831,-2.451489 5.474601,-5.475118 -9.1e-5,-3.023406 -2.451196,-5.4745102 -5.474601,-5.4746013 -0.05333,0.00157 -0.106419,0.00408 -0.15968,0.00723 v -0.00723 z m -4.44314,13.2591393 v 2.754354 h 3.63027 v -2.754354 z" />
    <path
       id="rect263-2"
       style="fill:#c1b19e;stroke-width:0.98444;stroke-linecap:round;stroke-linejoin:round"
       d="m 13.804842,4.8430613 v 3.6499064 h 3.616317 V 4.8430613 Z M 9.3611857,8.9937123 V 20.949571 H 12.978536 V 8.9937123 Z" />
    <path
       id="rect263-2-1-8"
       style="fill:#c1b19e;stroke-width:0.98444;stroke-linecap:round;stroke-linejoin:round"
       d="M 0.68688308,4.8430898 V 8.4925209 H 5.1293404 V 20.949543 H 8.7787716 V 8.4925209 H 13.221229 V 4.8430898 H 8.7787716 5.1293404 Z" />
  </g>
</svg>
